{
  "accessors": [
    {
      "bufferView": 2,
      "componentType": 5126,
      "count": 6909,
      "max": [
        1.6099952459335327,
        0.5801900029182434,
        1.1786456108093262
      ],
      "min": [
        -1.6266765594482422,
        -0.48791539669036865,
        -0.006371393799781799
      ],
      "type": "VEC3"
    },
    {
      "bufferView": 2,
      "byteOffset": 82908,
      "componentType": 5126,
      "count": 6909,
      "max": [
        0.9993475675582886,
        0.9999814033508301,
        0.9999133348464966
      ],
      "min": [
        -0.9999800324440002,
        -0.9996496438980103,
        -0.9998400807380676
      ],
      "type": "VEC3"
    },
    {
      "bufferView": 1,
      "componentType": 5126,
      "count": 6909,
      "max": [
        0.9727224707603455,
        0.8712158203125
      ],
      "min": [
        0.032773226499557495,
        0.12834084033966064
      ],
      "type": "VEC2"
    },
    {
      "bufferView": 0,
      "componentType": 5125,
      "count": 26406,
      "type": "SCALAR"
    },
    {
      "bufferView": 2,
      "byteOffset": 165816,
      "componentType": 5126,
      "count": 6909,
      "max": [
        1.6176966428756714,
        0.587997555732727,
        1.186624526977539
      ],
      "min": [
        -1.6328282356262207,
        -0.49575281143188477,
        -0.014367112889885902
      ],
      "type": "VEC3"
    },
    {
      "bufferView": 2,
      "byteOffset": 248724,
      "componentType": 5126,
      "count": 6909,
      "max": [
        0.9994786977767944,
        0.9997760653495789,
        0.9998654723167419
      ],
      "min": [
        -0.9999997019767761,
        -0.999964714050293,
        -0.9999631643295288
      ],
      "type": "VEC3"
    },
    {
      "bufferView": 1,
      "byteOffset": 55272,
      "componentType": 5126,
      "count": 6909,
      "max": [
        0.9727224707603455,
        0.8712158203125
      ],
      "min": [
        0.032773226499557495,
        0.12834084033966064
      ],
      "type": "VEC2"
    },
    {
      "bufferView": 0,
      "byteOffset": 105624,
      "componentType": 5125,
      "count": 26406,
      "type": "SCALAR"
    }
  ],
  "asset": {
    "extras": {
      "author": "joaobaltieri (https://sketchfab.com/joaobaltieri)",
      "license": "SKETCHFAB Standard (https://sketchfab.com/licenses)",
      "source": "https://sketchfab.com/3d-models/mini-chibi-taekwondo-4b9ee9fa24164257aa3faf26a77700d2",
      "title": "Mini Chibi Taekwondo"
    },
    "generator": "Sketchfab-15.15.0",
    "version": "2.0"
  },
  "bufferViews": [
    {
      "buffer": 0,
      "byteLength": 211248,
      "name": "floatBufferViews",
      "target": 34963
    },
    {
      "buffer": 0,
      "byteLength": 110544,
      "byteOffset": 211248,
      "byteStride": 8,
      "name": "floatBufferViews",
      "target": 34962
    },
    {
      "buffer": 0,
      "byteLength": 331632,
      "byteOffset": 321792,
      "byteStride": 12,
      "name": "floatBufferViews",
      "target": 34962
    }
  ],
  "buffers": [
    {
      "byteLength": 653424,
      "uri": "scene.bin"
    }
  ],
  "extensionsUsed": [
    "KHR_materials_specular"
  ],
  "images": [
    {
      "uri": "textures/mini_material_baseColor.png"
    }
  ],
  "materials": [
    {
      "doubleSided": true,
      "emissiveFactor": [
        0.9,
        0.9,
        0.9
      ],
      "emissiveTexture": {
        "index": 0
      },
      "extensions": {
        "KHR_materials_specular": {
          "specularColorFactor": [
            1.0,
            1.0,
            1.0
          ],
          "specularFactor": 0.0
        }
      },
      "name": "mini_material",
      "pbrMetallicRoughness": {
        "baseColorTexture": {
          "index": 0
        }
      }
    },
    {
      "extensions": {
        "KHR_materials_specular": {
          "specularColorFactor": [
            1.0,
            1.0,
            1.0
          ],
          "specularFactor": 0.0
        }
      },
      "name": "OH_Outline_Material",
      "pbrMetallicRoughness": {
        "baseColorFactor": [
          0.0,
          0.0,
          0.0,
          1.0
        ],
        "metallicFactor": 0.0
      }
    }
  ],
  "meshes": [
    {
      "name": "taekwondo_mini_material_0",
      "primitives": [
        {
          "attributes": {
            "NORMAL": 1,
            "POSITION": 0,
            "TEXCOORD_0": 2
          },
          "indices": 3,
          "material": 0,
          "mode": 4
        }
      ]
    },
    {
      "name": "taekwondo_OH_Outline_Material_0",
      "primitives": [
        {
          "attributes": {
            "NORMAL": 5,
            "POSITION": 4,
            "TEXCOORD_0": 6
          },
          "indices": 7,
          "material": 1,
          "mode": 4
        }
      ]
    }
  ],
  "nodes": [
    {
      "children": [
        1
      ],
      "matrix": [
        1.0,
        0.0,
        0.0,
        0.0,
        0.0,
        2.220446049250313e-16,
        -1.0,
        0.0,
        0.0,
        1.0,
        2.220446049250313e-16,
        0.0,
        0.0,
        0.0,
        0.0,
        1.0
      ],
      "name": "Sketchfab_model"
    },
    {
      "children": [
        2
      ],
      "matrix": [
        1.0,
        0.0,
        0.0,
        0.0,
        0.0,
        0.0,
        1.0,
        0.0,
        0.0,
        -1.0,
        0.0,
        0.0,
        0.0,
        0.0,
        0.0,
        1.0
      ],
      "name": "6d5e0d060b3d4da2bacffb4541f849e3.fbx"
    },
    {
      "children": [
        3
      ],
      "name": "RootNode"
    },
    {
      "children": [
        4,
        5
      ],
      "matrix": [
        1.0,
        0.0,
        0.0,
        0.0,
        0.0,
        -1.6292067939183141e-07,
        -0.9999999999999868,
        0.0,
        0.0,
        0.9999999999999868,
        -1.6292067939183141e-07,
        0.0,
        0.0,
        0.0,
        0.0,
        1.0
      ],
      "name": "taekwondo"
    },
    {
      "mesh": 0,
      "name": "taekwondo_mini_material_0"
    },
    {
      "mesh": 1,
      "name": "taekwondo_OH_Outline_Material_0"
    }
  ],
  "samplers": [
    {
      "magFilter": 9729,
      "minFilter": 9987,
      "wrapS": 10497,
      "wrapT": 10497
    }
  ],
  "scene": 0,
  "scenes": [
    {
      "name": "Sketchfab_Scene",
      "nodes": [
        0
      ]
    }
  ],
  "textures": [
    {
      "sampler": 0,
      "source": 0
    }
  ]
}
